<?xml version="1.0" standalone="no"?>
<!DOCTYPE svg PUBLIC "-//W3C//DTD SVG 1.1//EN" "http://www.w3.org/Graphics/SVG/1.1/DTD/svg11.dtd" >
<svg xmlns="http://www.w3.org/2000/svg">
<metadata>
Created by FontForge 20120731 at Thu Mar 24 15:56:54 2016
 By Ads
</metadata>
<defs>
<font id="ift" horiz-adv-x="1024" >
  <font-face 
    font-family="ift"
    font-weight="500"
    font-stretch="normal"
    units-per-em="1024"
    panose-1="2 0 6 3 0 0 0 0 0 0"
    ascent="896"
    descent="-128"
    x-height="792"
    bbox="-0.5 -128.878 1062 896.5"
    underline-thickness="50"
    underline-position="-100"
    unicode-range="U+0078-E66A"
  />
<missing-glyph horiz-adv-x="374" 
d="M34 0v682h272v-682h-272zM68 34h204v614h-204v-614z" />
    <glyph glyph-name=".notdef" horiz-adv-x="374" 
d="M34 0v682h272v-682h-272zM68 34h204v614h-204v-614z" />
    <glyph glyph-name=".null" horiz-adv-x="0" 
 />
    <glyph glyph-name="nonmarkingreturn" horiz-adv-x="341" 
 />
    <glyph glyph-name="x" unicode="x" horiz-adv-x="1001" 
d="M281 543q-27 -1 -53 -1h-83q-18 0 -36.5 -6t-32.5 -18.5t-23 -32t-9 -45.5v-76h912v41q0 16 -0.5 30t-0.5 18q0 13 -5 29t-17 29.5t-31.5 22.5t-49.5 9h-133v-97h-438v97zM955 310v-52q0 -23 0.5 -52t0.5 -58t-10.5 -47.5t-26 -30t-33 -16t-31.5 -4.5q-14 -1 -29.5 -0.5
t-29.5 0.5h-32l-45 128h-439l-44 -128h-29h-34q-20 0 -45 1q-25 0 -41 9.5t-25.5 23t-13.5 29.5t-4 30v167h911zM163 247q-12 0 -21 -8.5t-9 -21.5t9 -21.5t21 -8.5q13 0 22 8.5t9 21.5t-9 21.5t-22 8.5zM316 123q-8 -26 -14 -48q-5 -19 -10.5 -37t-7.5 -25t-3 -15t1 -14.5
t9.5 -10.5t21.5 -4h37h67h81h80h64h36q23 0 34 12t2 38q-5 13 -9.5 30.5t-9.5 34.5q-5 19 -11 39h-368zM336 498v228q0 11 2.5 23t10 21.5t20.5 15.5t34 6h188q31 0 51.5 -14.5t20.5 -52.5v-227h-327z" />
    <glyph glyph-name="uniE600" unicode="&#xe600;" 
d="M512 896q-138 0 -256 -69t-187 -187t-69 -256t69 -256t187 -187t256 -69t256 69t187 187t69 256t-69 256t-187 187t-256 69zM768 365q0 -19 -13 -32t-32 -13h-147v-147q0 -13 -6 -23t-16 -16t-23 -6h-38q-19 0 -32 13t-13 32v147h-147q-19 0 -32 13t-13 32v38q0 13 6 23
t16 16t23 6h147v147q0 19 13 32t32 13h38q19 0 32 -13t13 -32v-147h147q19 0 32 -13t13 -32v-38z" />
    <glyph glyph-name="uniE601" unicode="&#xe601;" horiz-adv-x="1028" 
d="M147 717l-134 -141l-7 -6q-2 -3 -4 -6.5t-2 -6.5q0 -13 13 -26l480 -480q9 -9 22 -9t23 9l480 480q6 7 8 15t0 16t-8 14l-135 134q-6 7 -14 9t-16 0t-15 -9l-320 -320l-320 320q-28 29 -51 7z" />
    <glyph glyph-name="uniE602" unicode="&#xe602;" 
d="M844 749l-141 134q-12 13 -19 13q-12 0 -25 -13l-479 -478q-6 -7 -8 -15t0 -16t8 -14l479 -478q9 -10 22 -10t22 10l134 134q10 9 10 22t-10 22l-319 319l319 319q29 29 7 51z" />
    <glyph glyph-name="uniE603" unicode="&#xe603;" 
d="M180 19l134 -134q13 -13 25.5 -13t25.5 13l479 478q6 7 8 15t0 16t-8 14l-479 478q-6 7 -14 9t-16 0t-14 -9l-134 -134q-10 -9 -10 -22t10 -22l319 -319l-319 -319q-29 -29 -7 -51z" />
    <glyph glyph-name="uniE604" unicode="&#xe604;" horiz-adv-x="1028" 
d="M880 51l134 135q4 3 7 7.5t4.5 9.5t1.5 8q0 13 -13 26l-480 480q-6 6 -14 8.5t-16 0t-14 -8.5l-480 -480q-10 -10 -10 -22.5t10 -22.5l134 -134q10 -10 22.5 -10t22.5 10l320 320l320 -320q29 -28 51 -7z" />
    <glyph glyph-name="uniE605" unicode="&#xe605;" 
d="M973 -128h-365v326h-192v-326h-365v672l461 352l461 -352v-672z" />
    <glyph glyph-name="uniE606" unicode="&#xe606;" 
d="M973 -128h-365v326h-192v-326h-365v672l461 352l461 -352v-672zM678 -64h231v576l-397 301l-390 -301v-576h230v326h326v-326z" />
    <glyph glyph-name="uniE607" unicode="&#xe607;" horiz-adv-x="1031" 
d="M595 339h-550q-19 0 -32 13t-13 32t13 32t32 13h557q12 0 22.5 -6t16 -16t5.5 -23q-3 -13 -10 -23t-17.5 -16t-23.5 -6zM979 640h-934q-19 0 -32 13t-13 32t13 32t32 13h941q27 -9 36 -34q2 -6 2 -11q0 -10 -5.5 -20.5t-16.5 -17.5t-23 -7zM979 45h-934q-19 0 -32 11.5
t-13 26.5q0 13 6 23t16 16t23 6h941q19 0 31.5 -13t12.5 -32q-9 -29 -38 -37q-7 -1 -13 -1z" />
    <glyph glyph-name="uniE608" unicode="&#xe608;" 
d="M512 282q-115 0 -195 80t-80 195v70q0 111 80 190t195 79t195 -80t80 -195v-71q0 -54 -21.5 -103.5t-58 -86t-88 -57.5t-107.5 -21zM992 -128h-960q-14 0 -23 9t-9 23q0 82 42 153t112.5 112.5t152.5 41.5h410q82 0 152.5 -41.5t112.5 -112.5t42 -153q0 -14 -9 -23
t-23 -9z" />
    <glyph glyph-name="uniE609" unicode="&#xe609;" 
d="M512 282q-115 0 -195 80t-80 195v70q0 111 80 190t195 79t195 -80t80 -195v-71q0 -54 -21.5 -103.5t-58 -86t-88 -57.5t-107.5 -21zM512 826q-34 0 -65.5 -10.5t-56.5 -29t-44 -43.5t-29 -56.5t-10 -65.5v-71q0 -56 27 -103t74 -74t104 -27t104 27t74 74t27 103v71
q0 86 -59.5 145.5t-145.5 59.5zM992 -128h-960q-14 0 -23 9t-9 23q0 82 42 153t112.5 112.5t152.5 41.5h410q82 0 152.5 -41.5t112.5 -112.5t42 -153q0 -14 -9 -23t-23 -9zM70 -58h884q-10 58 -43 104.5t-84 73.5t-110 27h-410q-109 0 -180 -82q-45 -54 -57 -123z" />
    <glyph glyph-name="uniE60A" unicode="&#xe60a;" horiz-adv-x="1026" 
d="M966 -128q-27 2 -38 19l-128 128q-14 15 -14 39.5t14 43.5q14 15 39 15t44 -15l128 -128q10 -9 13 -24t0 -30.5t-13 -28.5q-19 -19 -45 -19zM448 0q-187 0 -317.5 130.5t-130.5 317.5t130.5 317.5t317.5 130.5t317.5 -130.5t130.5 -317.5q0 -122 -61 -225.5t-164 -163
t-223 -59.5zM448 781q-91 0 -167.5 -44.5t-121 -121t-44.5 -167.5t44.5 -167.5t121 -121t167.5 -44.5t167.5 44.5t121 121t44.5 167.5t-44.5 167.5t-121 121t-167.5 44.5zM237 435h-13q-15 3 -27 13.5t-16.5 24t-1.5 26.5q15 82 72.5 139.5t138.5 71.5q16 4 31 -1t24 -16.5
t9 -26.5q5 -24 -7.5 -42t-36.5 -22q-32 -7 -57.5 -23.5t-42 -41.5t-22.5 -57q0 -19 -15.5 -32t-35.5 -13z" />
    <glyph glyph-name="uniE60B" unicode="&#xe60b;" horiz-adv-x="1026" 
d="M986 480l-128 77q14 19 23 46.5t9 55.5v45q0 67 -46.5 117.5t-113.5 55.5q-60 0 -103 -26q39 -29 66 -67.5t41.5 -85t14.5 -96.5v-96q0 -91 -45 -154l122 -70q35 -18 57 -52h96q19 0 32 13t13 32v135q5 18 -7 39t-31 31zM781 192l-211 128q39 34 61 80.5t22 98.5v83
q0 45 -16 87.5t-44 75.5t-67.5 54.5t-83.5 26.5q-69 6 -128.5 -24t-93.5 -87t-34 -126v-96q0 -23 3.5 -44.5t11 -41t18.5 -36.5t25 -31.5t31 -25.5l-217 -128q-26 -15 -42 -42.5t-16 -60.5v-147q0 -13 6 -23t16 -16t23 -6h749q19 0 31.5 13t12.5 32v147q-1 71 -57 109z" />
    <glyph glyph-name="uniE60C" unicode="&#xe60c;" horiz-adv-x="1033" 
d="M966 582h-281l-135 282q-21 32 -44 32q-14 0 -24.5 -8t-20.5 -24l-128 -282h-288q-15 0 -27.5 -8.5t-17.5 -23.5q1 -38 13 -51l211 -217l-83 -346q-1 -4 -2 -7.5t-1 -7t1 -7t2 -6.5t3 -6.5t4 -6t5 -5.5t7 -5q9 -9 25.5 -10.5t25.5 3.5l301 173l301 -173q13 -6 25 -6
q6 0 10.5 1.5t12 5.5t9.5 6q12 11 18 24.5t2 26.5l-84 339l212 218q22 22 12 51q-4 6 -9.5 11.5t-11 10t-11 7.5t-11 5t-11 3t-10.5 1z" />
    <glyph glyph-name="uniE60D" unicode="&#xe60d;" 
d="M512 -86q26 0 35 18l294 293q13 14 13 30t-13 29t-29.5 13t-29.5 -13l-229 -229v758q0 17 -11.5 29t-29.5 12t-29.5 -12t-11.5 -29v-752l-229 229q-13 13 -29.5 13t-29.5 -13q-12 -12 -12 -29.5t12 -29.5l294 -293q8 -24 35 -24z" />
    <glyph glyph-name="uniE60E" unicode="&#xe60e;" 
d="M982 384q0 26 -18 35l-293 294q-14 13 -30 13t-29 -13t-13 -29.5t13 -29.5l229 -229h-758q-17 0 -29 -11.5t-12 -29.5t12 -29.5t29 -11.5h752l-229 -229q-13 -13 -13 -29.5t13 -29.5q12 -12 29.5 -12t29.5 12l293 294q24 8 24 35z" />
    <glyph glyph-name="uniE60F" unicode="&#xe60f;" 
d="M42 384q0 -26 18 -35l293 -294q14 -13 30 -13t29 13t13 29.5t-13 29.5l-229 229h752q18 0 29.5 11.5t11.5 29.5t-11.5 29.5t-29.5 11.5h-746l229 229q13 13 13 29.5t-13 29.5q-24 12 -35 12q-6 0 -10 -1.5t-10.5 -5.5t-9.5 -5l-293 -294q-18 -9 -18 -35z" />
    <glyph glyph-name="uniE610" unicode="&#xe610;" 
d="M512 854q-26 0 -35 -18l-294 -293q-13 -14 -13 -30t13 -29t29.5 -13t29.5 13l229 229v-752q0 -18 11.5 -29.5t29.5 -11.5t29.5 11.5t11.5 29.5v746l229 -229q13 -13 29.5 -13t29.5 13q12 12 12 29.5t-12 29.5l-294 293q-8 24 -35 24z" />
    <glyph glyph-name="uniE611" unicode="&#xe611;" horiz-adv-x="1026" 
d="M0 614q0 20 13 32q5 6 11.5 9.5t13.5 4.5t13.5 0t13 -4.5t12.5 -9.5l435 -435l435 435q6 6 12.5 9.5t13 4.5t13.5 0t13.5 -4.5t11.5 -9.5q10 -9 13 -20.5t0 -22.5t-13 -21l-467 -467q-14 -14 -32 -14t-32 14l-467 467q-2 4 -5 9l-4 7q-2 3 -3 7.5t-1 8.5z" />
    <glyph glyph-name="uniE612" unicode="&#xe612;" 
d="M282 -128q-19 0 -32 13q-6 5 -9.5 11.5t-4.5 13.5t0 13.5t4.5 13t9.5 12.5l435 434l-435 435q-14 14 -14 31.5t14 32.5q4 3 7.5 6t7.5 4.5t8.5 2.5t8.5 1t8.5 -1t8.5 -2.5t7.5 -4.5t7.5 -6l466 -467q15 -14 15 -31.5t-15 -32.5l-466 -466q-29 -13 -32 -13z" />
    <glyph glyph-name="uniE613" unicode="&#xe613;" 
d="M742 896q19 0 32 -13q9 -9 12.5 -20.5t0 -22.5t-12.5 -21l-428 -434l434 -435q15 -14 15 -31.5t-15 -32.5q-27 -27 -57 -5q-4 3 -7 5l-466 467q-14 14 -14 31.5t14 32.5l466 466q13 13 26 13z" />
    <glyph glyph-name="uniE614" unicode="&#xe614;" horiz-adv-x="1026" 
d="M1026 154q-1 -19 -13 -32q-15 -15 -32.5 -15t-31.5 15l-435 428l-436 -435q-14 -14 -31.5 -14t-32 14.5t-14.5 32t14 31.5l468 467q5 6 11.5 9.5t13.5 4.5t13.5 0t13 -4.5t12.5 -9.5l467 -467q4 -4 6 -6.5t4.5 -7.5t2.5 -11z" />
    <glyph glyph-name="uniE615" unicode="&#xe615;" 
d="M934 787q-9 19 -38 19h-723v45q0 19 -13 32t-32 13q-13 0 -23 -6t-16 -16t-6 -23v-941q0 -9 6 -18t16.5 -14.5t22.5 -5.5q6 0 12 1.5t11 4.5t9 7t7 9t4.5 10.5t1.5 12.5v301h723q29 0 38 19q12 22 0 45l-160 230l154 230l3 9q2 6 3 8.5t2 7.5t1 7.5t-0.5 6t-2.5 6.5z" />
    <glyph glyph-name="uniE616" unicode="&#xe616;" 
d="M928 109q-2 2 -4.5 7t-10.5 20.5t-15.5 32.5t-16 42.5t-15 51t-11 58t-4.5 63.5v173q0 91 -45.5 169.5t-124 124t-169.5 45.5t-171 -45.5t-127.5 -124t-47.5 -169.5v-173q0 -137 -69 -263q-5 -8 -7 -12q-4 -7 -5 -15t0 -16t5 -14q8 -26 32 -26h768q28 0 38 20q6 12 7 22
t-1 15t-6 14zM365 -45q52 -83 147 -83t147 83h-294z" />
    <glyph glyph-name="uniE617" unicode="&#xe617;" 
d="M1024 429q0 87 -40.5 166.5t-109.5 137t-163.5 91.5t-198.5 34q-139 0 -256.5 -57.5t-186.5 -156.5t-69 -215.5t69 -215t186.5 -156t256.5 -57.5q38 0 128 13l237 -96q2 0 7 -3.5t12 -3.5q4 0 8.5 1t7 2.5t5.5 2.5t5 1q4 0 11.5 14.5t7.5 23.5l-19 199q102 133 102 275z
M595 301h-294v83h301v-83h-7zM723 467h-422v90h429v-90h-7z" />
    <glyph glyph-name="uniE618" unicode="&#xe618;" 
d="M826 582h-269v-358q0 -13 -6 -23t-16 -16t-23 -6q-19 0 -32 13t-13 32v358h-269q-12 0 -22.5 -5.5t-16 -16t-5.5 -22.5v-621q0 -13 5.5 -23t16 -16t22.5 -6h621q19 0 32 13t13 32v621q1 41 -38 44zM410 685l57 57v-160h90v160l57 -57q13 -13 32 -13q6 0 10.5 1.5t12 5.5
t9.5 6q15 14 15 31.5t-15 32.5l-134 134q-6 7 -13 7q-9 9 -38 0q-8 -7 -13 -7l-134 -134q-15 -15 -15 -32.5t15 -31.5q32 -21 64 0z" />
    <glyph glyph-name="uniE619" unicode="&#xe619;" 
d="M512 -64q-13 0 -26 13l-147 179h-307q-14 0 -23 9t-9 23v640q0 14 9 23t23 9h960q14 0 23 -9t9 -23v-640q0 -14 -9 -23t-23 -9h-307l-154 -179q0 -5 -7 -9t-12 -4zM64 192h288q13 0 26 -13l134 -160l134 160q5 4 7.5 6.5t7.5 4.5t11 2h288v576h-896v-576zM768 544h-512
q-14 0 -23 9t-9 23t9 23t23 9h512q14 0 23 -9t9 -23t-9 -23t-23 -9zM544 352h-288q-14 0 -23 9t-9 23t9 23t23 9h288q14 0 23 -9t9 -23t-9 -23t-23 -9z" />
    <glyph glyph-name="uniE61A" unicode="&#xe61a;" 
d="M844 -128h-728q-14 0 -22.5 9t-8.5 23t8.5 23t22.5 9h728q14 0 23 -9t9 -23q0 -7 -3.5 -13t-8 -10t-10 -6.5t-10.5 -2.5zM314 38h-198q-14 0 -22.5 8.5t-8.5 23.5v198q0 12 12 25l594 593q9 10 22 10t22 -10l198 -197q10 -10 10 -22.5t-10 -22.5l-593 -593
q-7 -13 -26 -13zM148 102h153l562 561l-153 153l-562 -561v-153z" />
    <glyph glyph-name="uniE61B" unicode="&#xe61b;" 
d="M512 -115q-13 0 -19 6q-1 1 -22 19.5t-48.5 44t-66 63t-77.5 79.5t-79.5 90t-76 98.5t-63.5 100.5t-44 101t-16 95q0 124 86.5 209.5t207.5 85.5q122 0 218 -96q86 96 218 96q120 0 207 -87.5t87 -207.5q0 -65 -35 -144.5t-89 -152.5t-115 -142.5t-118 -123.5t-92.5 -85
t-43.5 -36q-13 -13 -19 -13zM294 819q-96 0 -163 -67t-67 -163q0 -62 39 -141.5t92 -148.5t122 -142.5t113 -115t82 -73.5q21 18 45.5 40t62 58t74 75t76 84.5t72.5 92t60 93t42.5 92.5t15.5 86q0 96 -67 163t-163 67q-58 0 -108.5 -27t-83.5 -75q-4 -6 -9.5 -9.5t-11 -4.5
t-11 0t-11 4.5t-9.5 9.5q-35 45 -85.5 73.5t-106.5 28.5z" />
    <glyph glyph-name="uniE61C" unicode="&#xe61c;" 
d="M0 384q0 -42 30 -72t72.5 -30t72.5 30t30 72t-30 72t-72.5 30t-72.5 -30t-30 -72zM410 384q0 -42 30 -72t72 -30t72 30t30 72q0 28 -13.5 51.5t-37 37t-51.5 13.5q-42 0 -72 -30t-30 -72zM819 384q0 -42 30 -72t72.5 -30t72.5 30t30 72t-30 72t-72.5 30t-72.5 -30
t-30 -72z" />
    <glyph glyph-name="uniE61D" unicode="&#xe61d;" 
d="M512 224q-67 0 -113.5 46.5t-46.5 113.5t46.5 113.5t113.5 46.5t113.5 -46.5t46.5 -113.5t-46.5 -113.5t-113.5 -46.5zM512 480q-38 0 -67 -29t-29 -67t29 -67t67 -29t67 29t29 67t-29 67t-67 29zM608 -128h-192q-14 0 -23 9t-9 23v96q0 10 -5 18t-14 8q-17 8 -32 -7
l-71 -70q-9 -10 -22 -10t-22 10l-135 134q-9 10 -9 22.5t9 22.5l71 70q15 15 6 32q-3 6 -8 11t-9.5 7t-8.5 2h-102q-32 10 -32 38v192q0 14 9 23t23 9h102q23 0 26 16v3l1 8q1 7 -0.5 12.5t-6.5 11.5l-71 71q-6 6 -8.5 14t0 16t8.5 14l135 135q9 9 22 9t22 -9l71 -71
q6 -6 19 -6h13q19 10 19 26v102q0 10 4 17t11 11t17 4h192q14 0 23 -9t9 -23v-102q0 -11 5 -18.5t14 -7.5q11 -4 18.5 -1.5t13.5 7.5l71 71q6 6 14 8.5t16 0t14 -8.5l135 -135q6 -6 8.5 -14t0 -16t-8.5 -14l-71 -71q-15 -15 -6 -32q10 -18 26 -19h96q9 0 16.5 -4t11.5 -11
t4 -17v-192q0 -14 -9 -23t-23 -9h-90q-10 0 -18 -5t-8 -14v-3q0 -2 -0.5 -4t-0.5 -4v-6q0 -2 1 -4.5t2.5 -5.5t4.5 -5l70 -71q7 -6 9 -14t0 -16t-9 -14l-134 -135q-10 -9 -22.5 -9t-22.5 9l-70 71q-15 15 -32 6q-14 -4 -20 -12.5t-6 -19.5v-96q0 -14 -9 -23t-23 -9zM448 -64
h128v64q0 19 8 36t20.5 30.5t29.5 23.5q52 21 102 -20l51 -51l90 90l-45 45q-40 40 -19 102q9 24 35 41t54 17h64v128h-64q-18 0 -35.5 7.5t-30.5 20.5t-23 29q-21 52 19 103l51 51l-89 89l-45 -44q-19 -19 -49 -24.5t-54 4.5q-15 7 -28.5 20.5t-21 32t-7.5 37.5v64h-128
v-70q0 -28 -16 -51.5t-42 -38.5h-6q-30 -9 -56.5 -1.5t-46.5 27.5l-44 44l-90 -89l45 -45q40 -40 19 -102q-3 -7 -7 -13.5t-9.5 -12.5t-12 -10.5t-14 -8.5t-15 -7t-15.5 -4.5t-17 -1.5h-70v-128h70q28 0 51.5 -16t38.5 -42q5 -12 6 -25t-1.5 -26t-8.5 -26t-15 -25l-51 -51
l89 -90l45 45q19 19 49 24t53 -5q12 -5 22.5 -14t18.5 -21t12.5 -26t4.5 -28v-58z" />
    <glyph glyph-name="uniE61E" unicode="&#xe61e;" 
d="M512 178q-14 0 -23 9t-9 23v651q0 14 9 23t23 9q5 0 9 -1t7.5 -3t6.5 -5t5 -6.5t3 -7.5t1 -9v-644q0 -39 -32 -39zM646 689q-13 0 -26 12l-108 109l-115 -109q-20 -20 -51 0q-20 21 0 51l134 134q21 21 51 0l134 -134q21 -20 0 -51q0 -2 -1 -4.5t-3.5 -4t-6 -2.5t-8.5 -1
zM850 -128h-676q-7 0 -13 2.5t-10 6.5t-6.5 10t-2.5 13v612q0 15 9 23.5t23 8.5h204q14 0 23 -8.5t9 -23t-9 -23.5t-23 -9h-172v-542h612v542h-172q-9 0 -16.5 4t-11.5 11.5t-4 16.5q0 15 9 23.5t23 8.5h204q14 0 23 -8.5t9 -23.5v-612q5 -14 -5.5 -23t-26.5 -9z" />
    <glyph glyph-name="uniE61F" unicode="&#xe61f;" 
d="M512 45q-77 0 -157 32t-138.5 76.5t-108 93.5t-74 79.5t-28.5 38.5q-9 19 0 38q4 8 28.5 38.5t74 79.5t108 93.5t138.5 76.5t157 32q49 0 100 -13t94.5 -35t84.5 -49.5t74.5 -57.5t61.5 -58t47.5 -51.5t30.5 -37.5t13 -18q9 -19 0 -38q-4 -8 -28.5 -38.5t-74 -79.5
t-108 -93.5t-138.5 -76.5t-157 -32zM77 384q22 -28 45.5 -54.5t70.5 -69.5t92.5 -74t107 -54t119.5 -23t119 22t108 53.5t92 72.5t71 71t45 56q-22 28 -45.5 54.5t-70.5 69.5t-92.5 74t-107 54t-119.5 23t-119.5 -23t-107 -54t-92.5 -74t-70.5 -69.5t-45.5 -54.5zM512 179
q-34 0 -65.5 10t-56.5 29t-44 44t-29 56.5t-10 65.5q0 57 27 104t74 74t104 27q34 0 65.5 -10t56.5 -29t44 -44t29 -56.5t10 -65.5q0 -86 -59.5 -145.5t-145.5 -59.5zM512 518q-57 0 -95.5 -40t-38.5 -94q0 -37 18.5 -68.5t49.5 -48.5t66 -17q28 0 53 11t43 29.5t28 43
t10 50.5q0 58 -38 96t-96 38z" />
    <glyph glyph-name="uniE620" unicode="&#xe620;" horiz-adv-x="1033" 
d="M514 518h-12l-480 173q-14 5 -19.5 17.5t-0.5 27.5q5 14 18 19t27 0l467 -166l468 166q4 2 9 2.5t9.5 0t8.5 -2t7.5 -4.5t6 -6.5t3.5 -8.5q11 -30 -14 -43q-3 -1 -5 -2l-480 -173h-13zM514 -128q-9 0 -16.5 4t-11.5 11t-4 17v653q0 14 9 23t23.5 9t23 -9t8.5 -23v-647
q-1 -37 -32 -38zM514 -128h-12l-480 173q-20 9 -20 32v646q0 19 26 32l480 135h19l480 -135q26 -13 26 -32v-646q0 -24 -26 -32l-480 -173h-13zM73 102l441 -160l442 160v602l-442 128l-441 -128v-602z" />
    <glyph glyph-name="uniE621" unicode="&#xe621;" 
d="M800 -128h-704q-14 0 -23 9t-9 23v832q0 14 9 23t23 9h704q14 0 23 -9t9 -23v-832q0 -14 -9 -23t-23 -9zM128 -64h640v768h-640v-768zM640 448h-384q-14 0 -23 9t-9 23t9 23t23 9h384q14 0 23 -9t9 -23t-9 -23t-23 -9zM640 288h-384q-14 0 -23 9t-9 23t9 23t23 9h384
q14 0 23 -9t9 -23t-9 -23t-23 -9zM384 128h-128q-14 0 -23 9t-9 23t9 23t23 9h128q14 0 23 -9t9 -23t-9 -23t-23 -9zM928 -32q-14 0 -23 9t-9 23v832h-704q-14 0 -23 9t-9 23t9 23t23 9h736q14 0 23 -9t9 -23v-864q0 -14 -9 -23t-23 -9z" />
    <glyph glyph-name="uniE622" unicode="&#xe622;" 
d="M512 96q-14 0 -23 9t-9 23v352q0 14 9 23t23 9t23 -9t9 -23v-352q0 -14 -9 -23t-23 -9zM672 288q-19 0 -26 6l-134 141l-134 -134q-10 -10 -23 -10t-22 10q-4 4 -6.5 8.5t-3 9t0 9.5t3 9.5t6.5 8.5l160 160q4 3 8.5 5.5t9 3.5t9.5 0t9.5 -3.5t8.5 -5.5l160 -160
q9 -10 9 -23t-9 -22q-5 -9 -11.5 -11t-14.5 -2zM832 32h-192q-14 0 -23 9t-9 23t9 23t23 9h192q53 5 90.5 46.5t37.5 94.5q0 56 -38 96.5t-96 50.5q-20 0 -32 26q-5 54 -30 101.5t-64 81.5t-89.5 53.5t-104.5 19.5q-64 0 -120 -26t-96.5 -72.5t-59.5 -106.5q-3 -7 -6.5 -11
t-8 -6t-10.5 -2q-39 -7 -71 -30.5t-51 -61.5t-19 -81q0 -67 46 -118.5t114 -60.5h160q10 0 17 -4t11 -11.5t4 -16.5q0 -15 -9 -23.5t-23 -8.5h-160q-91 4 -157.5 74.5t-66.5 161.5q0 54 23.5 102.5t64 82t91.5 46.5q39 106 128.5 168t204.5 62q43 0 84 -10t77 -28t67 -44.5
t55 -58.5t40 -71.5t23 -81.5q72 -15 119 -72t47 -133q0 -69 -56.5 -128t-135.5 -64z" />
    <glyph glyph-name="uniE623" unicode="&#xe623;" 
d="M672 672q-14 0 -23 9t-9 23v128h-256v-128q0 -14 -9 -23t-23 -9t-23 9t-9 23v160q0 14 9 23t23 9h320q14 0 23 -9t9 -23v-160q0 -14 -9 -23t-23 -9zM864 -128h-704q-14 0 -23 9t-9 23v800q0 14 9 23t23 9t23 -9t9 -23v-768h640v768q0 14 9 23t23 9t23 -9t9 -23v-800
q0 -14 -9 -23t-23 -9zM512 96q-14 0 -23 9t-9 23v352q0 14 9 23t23 9t23 -9t9 -23v-352q0 -14 -9 -23t-23 -9zM352 96q-14 0 -23 9t-9 23v352q0 14 9 23t23 9t23 -9t9 -23v-352q0 -14 -9 -23t-23 -9zM672 96q-14 0 -23 9t-9 23v352q0 14 9 23t23 9t23 -9t9 -23v-352
q0 -14 -9 -23t-23 -9zM960 672h-896q-14 0 -23 9t-9 23t9 23t23 9h896q14 0 23 -9t9 -23t-9 -23t-23 -9z" />
    <glyph glyph-name="uniE624" unicode="&#xe624;" 
d="M1024 384q0 -138 -69 -256t-187 -187t-256 -69t-256 69t-187 187t-69 256t69 256t187 187t256 69t256 -69t187 -187t69 -256zM64 384q0 -187 130.5 -317.5t317.5 -130.5t317.5 130.5t130.5 317.5t-130.5 317.5t-317.5 130.5t-317.5 -130.5t-130.5 -317.5zM736 480v-8
q0 -4 -1.5 -9.5t-4.5 -8.5l-192 -192q-4 -3 -7.5 -5t-7.5 -3t-8 -1t-8 1t-7.5 3t-6.5 5l-192 192q-10 10 -10 23t9.5 22.5t22.5 9.5t23 -10l166 -166l166 166q5 5 11 7.5t12 2.5t11.5 -2.5t10.5 -7.5q5 0 7.5 -2t3.5 -5.5t1.5 -5.5t0.5 -6z" />
    <glyph glyph-name="uniE625" unicode="&#xe625;" 
d="M512 -128q-138 0 -256 69t-187 187t-69 256t69 256t187 187t256 69t256 -69t187 -187t69 -256t-69 -256t-187 -187t-256 -69zM512 832q-187 0 -317.5 -130.5t-130.5 -317.5t130.5 -317.5t317.5 -130.5t317.5 130.5t130.5 317.5t-130.5 317.5t-317.5 130.5zM608 160
q-19 0 -26 6l-192 192q-3 4 -5.5 8.5t-3.5 9.5t0 9.5t3.5 9t5.5 8.5l192 192q7 7 15 9t16 0t14 -9q10 -9 10 -22t-10 -23l-166 -166l166 -166q10 -10 10 -23t-10 -22q0 -3 -1 -5.5t-2.5 -4t-3.5 -2t-4.5 -1t-3.5 -0.5h-4z" />
    <glyph glyph-name="uniE626" unicode="&#xe626;" 
d="M512 896q138 0 256 -69t187 -187t69 -256t-69 -256t-187 -187t-256 -69t-256 69t-187 187t-69 256t69 256t187 187t256 69zM512 -64q187 0 317.5 130.5t130.5 317.5t-130.5 317.5t-317.5 130.5t-317.5 -130.5t-130.5 -317.5t130.5 -317.5t317.5 -130.5zM416 608h6
q2 0 6.5 -0.5t7.5 -2t6 -3.5l192 -192q9 -10 9 -23t-9 -22l-192 -192q-5 -5 -11 -7.5t-12 -2.5t-11.5 2.5t-10.5 7.5q-7 6 -9 14t0 16t9 15l166 166l-166 166q-5 5 -7.5 11t-2.5 12t2.5 11.5t7.5 10.5q0 5 2 7.5t5.5 3.5t5.5 1.5t6 0.5z" />
    <glyph glyph-name="uniE627" unicode="&#xe627;" 
d="M0 384q0 138 69 256t187 187t256 69t256 -69t187 -187t69 -256t-69 -256t-187 -187t-256 -69t-256 69t-187 187t-69 256zM960 384q0 187 -130.5 317.5t-317.5 130.5t-317.5 -130.5t-130.5 -317.5t130.5 -317.5t317.5 -130.5t317.5 130.5t130.5 317.5zM288 288q0 19 6 26
l192 192q7 6 15 8t16 0t14 -8l192 -192q5 -5 7.5 -11t2.5 -12t-2.5 -11.5t-7.5 -10.5q-6 -7 -14 -9t-16 0t-15 9l-166 166l-166 -166q-4 -3 -7.5 -5.5t-7.5 -3.5t-8 -1t-8 1t-7.5 3.5t-6.5 5.5q-6 0 -9 4t-3.5 7t-0.5 8z" />
    <glyph glyph-name="uniE628" unicode="&#xe628;" 
d="M928 640h-832q-14 0 -23 -9t-9 -23v-704q0 -14 9 -23t23 -9h832q14 0 23 9t9 23v704q0 14 -9 23t-23 9zM224 704h576q14 0 23 9t9 23t-9 23t-23 9h-576q-14 0 -23 -9t-9 -23t9 -23t23 -9zM352 832h320q14 0 23 9t9 23t-9 23t-23 9h-320q-14 0 -23 -9t-9 -23t9 -23t23 -9z
" />
    <glyph glyph-name="uniE629" unicode="&#xe629;" 
d="M512 -115q-13 0 -19 6q-1 1 -22 19.5t-48.5 44t-66 63t-77.5 79.5t-79.5 90t-76 98.5t-63.5 100.5t-44 101t-16 95q0 124 86.5 209.5t207.5 85.5q122 0 218 -96q86 96 218 96q120 0 207 -87.5t87 -207.5q0 -65 -35 -144.5t-89 -152.5t-115 -142.5t-118 -123.5t-92.5 -85
t-43.5 -36q-13 -13 -19 -13z" />
    <glyph glyph-name="uniE62A" unicode="&#xe62a;" 
d="M512 896q-138 0 -256 -69t-187 -187t-69 -256t69 -256t187 -187t256 -69t256 69t187 187t69 256t-69 256t-187 187t-256 69zM762 518l-320 -320q-7 -6 -26 -6h-8q-4 0 -9.5 1.5t-8.5 4.5l-128 128q-4 5 -6.5 11t-2.5 12t2.5 11.5t6.5 10.5q4 4 8.5 6.5t9.5 3t9.5 0t9 -3
t8.5 -6.5l103 -102l294 294q10 10 22.5 10t22.5 -10q5 -5 8.5 -10.5t5 -11.5t1.5 -12t-2 -11z" />
    <glyph glyph-name="uniE62B" unicode="&#xe62b;" 
d="M281 -128h-243q-38 0 -38 38v249q0 5 4 13t9 13l702 701q9 10 25 10t26 -10l248 -248q7 -7 9 -16.5t0 -19t-9 -15.5l-701 -702q-3 -2 -6 -3.5t-5.5 -3t-5 -2.5t-4.5 -2t-5 -1.5t-6 -0.5zM70 -58h198l670 670l-198 198l-670 -670v-198z" />
    <glyph glyph-name="uniE62C" unicode="&#xe62c;" 
d="M512 896q-138 0 -256 -69t-187 -187t-69 -256t69 -256t187 -187t256 -69t256 69t187 187t69 256t-69 256t-187 187t-256 69zM762 179l-45 -45l-199 199l-198 -199l-45 45l199 199l-212 211l45 45l211 -212l212 212l44 -45l-211 -211z" />
    <glyph glyph-name="uniE62D" unicode="&#xe62d;" 
d="M928 640h-832q-14 0 -23 -9t-9 -23v-704q0 -14 9 -23t23 -9h832q14 0 23 9t9 23v704q0 14 -9 23t-23 9zM896 -38q0 -17 -17 -24q-5 -2 -9 -2h-716q-7 0 -12.5 2t-8 6t-4 8.5t-1.5 9.5v588q0 10 8 18t18 8h710q26 0 26 -26v-588h6zM224 704h576q14 0 23 9t9 23t-9 23
t-23 9h-576q-14 0 -23 -9t-9 -23t9 -23t23 -9zM352 832h320q14 0 23 9t9 23t-9 23t-23 9h-320q-14 0 -23 -9t-9 -23t9 -23t23 -9z" />
    <glyph glyph-name="uniE62E" unicode="&#xe62e;" horiz-adv-x="1027" 
d="M201 550q-3 0 -5 0.5t-4.5 1t-5 2t-4.5 3.5q-11 10 -13 22t6 23l199 262q6 7 14 10.5t16.5 3t14.5 -7.5q10 -10 12.5 -22t-6.5 -22l-198 -263q-13 -13 -26 -13zM796 550q-13 0 -25 13l-199 263q-9 9 -6 24t13 20q9 10 24 7t20 -13l199 -262q9 -10 6.5 -25t-13.5 -20
q-4 -4 -8 -5.5t-11 -1.5zM623 -13h-390q-22 1 -32 19l-198 564q-2 3 -3 6t0 6.5t2 5.5t3.5 6.5t3.5 7.5q13 12 26 12h928q12 0 25 -12q7 -7 7 -32l-96 -276q-5 -14 -17.5 -19t-27.5 0q-9 3 -15 10t-6.5 16t2.5 19l83 237h-832l173 -493h364q15 0 23.5 -9t8.5 -23
q0 -45 -32 -45zM796 -109q-96 0 -163 67.5t-67 163.5t67 163t163 67t163.5 -67t67.5 -163t-67.5 -163.5t-163.5 -67.5zM796 288q-67 0 -116.5 -49.5t-49.5 -117t49.5 -117t116.5 -49.5t117 49.5t50 117t-50 117t-117 49.5zM796 19q-14 0 -23 9t-9 23v135q0 9 4 16.5
t11.5 11.5t16.5 4q15 0 23.5 -9t8.5 -23v-135q0 -11 -9 -21.5t-23 -10.5zM860 90h-134q-15 0 -23.5 8.5t-8.5 23t8.5 23.5t23.5 9h134q10 0 17 -4t11 -11.5t4 -16.5q0 -15 -8.5 -23.5t-23.5 -8.5z" />
    <glyph glyph-name="uniE62F" unicode="&#xe62f;" 
d="M512 -45q-10 0 -17 4t-11 11.5t-4 16.5v730q0 14 9 23t23 9t23 -9t9 -23v-730q0 -14 -9 -23t-23 -9zM992 -77q-14 0 -23 9t-9 23q0 23 -25 45t-73.5 36.5t-106.5 14.5q-87 0 -146 -30t-59 -66q0 -14 -8.5 -23t-23.5 -9q-9 0 -16.5 4t-11.5 11.5t-4 16.5q0 36 -58.5 66
t-145.5 30q-88 0 -153 -30.5t-65 -65.5q0 -7 -2.5 -13t-6.5 -10t-10 -6.5t-13 -2.5q-14 0 -23 9t-9 23v736q0 19 7 37t19.5 33t30.5 28t41.5 23.5t50 17.5t57 11t63.5 4q53 0 101 -10t83.5 -27t58.5 -40q35 35 99.5 56t143.5 21q120 0 194.5 -43t74.5 -111v-736
q0 -14 -9 -23t-23 -9zM269 115q160 0 243 -83q34 39 98 61t145 22q63 0 117 -13.5t88 -37.5v634q0 35 -58.5 62t-146.5 27q-58 0 -106 -13t-73.5 -33.5t-25.5 -42.5q0 -15 -8.5 -23.5t-23 -8.5t-23.5 8.5t-9 23.5q0 22 -25 42.5t-73 33.5t-106 13q-88 0 -153 -30.5
t-65 -65.5v-633q78 57 205 57z" />
    <glyph glyph-name="uniE630" unicode="&#xe630;" 
d="M512 506l435 198l-429 192h-19l-429 -192zM538 467v-595l428 192q13 7 13 19v576zM486 467l-441 199v-576q0 -5 1 -9t3 -6t4 -3.5t5 -1.5l428 -192v589z" />
    <glyph glyph-name="uniE631" unicode="&#xe631;" 
d="M19 896q-19 0 -19 -19v-979q0 -20 19 -20t19 20v979q10 19 -19 19zM1005 896q-19 0 -19 -19v-979q0 -20 19 -20t19 20v979q0 19 -19 19zM736 896h-448q-19 0 -19 -19v-403q0 -20 19 -20h448q19 0 19 20v403q0 19 -19 19zM736 320h-448q-19 0 -19 -19v-403q0 -20 19 -20
h448q19 0 19 20v403q0 3 -2 7.5t-6.5 8t-10.5 3.5zM154 851q-20 0 -20 -19v-45q0 -19 19.5 -19t19.5 19v45q7 15 -13 19h-6zM154 582q-20 0 -20 -19v-45q0 -19 19.5 -19t19.5 19v45q7 16 -13 19h-6zM154 320q-20 0 -20 -19v-45q0 -19 19.5 -19t19.5 19v45q5 5 -2.5 12
t-16.5 7zM154 51q-20 0 -20 -19v-45q0 -19 19.5 -19t19.5 19v45q2 4 0.5 8t-7.5 7.5t-12 3.5zM870.5 851q-19.5 0 -19.5 -19v-45q0 -19 19.5 -19t19.5 19v45q0 19 -19.5 19zM870.5 582q-19.5 0 -19.5 -19v-45q0 -19 19.5 -19t19.5 19v45q0 19 -19.5 19zM870 320
q-19 0 -19 -19v-45q0 -19 19.5 -19t19.5 19v45q0 3 -2 7.5t-7 8t-11 3.5zM870 51q-19 0 -19 -19v-45q0 -19 19.5 -19t19.5 19v45q0 6 -5.5 12.5t-14.5 6.5z" />
    <glyph glyph-name="uniE632" unicode="&#xe632;" 
d="M881 -77h-757q-25 0 -25 -26q0 -14 5.5 -19.5t19.5 -5.5h757q25 0 25 25.5t-25 25.5zM563 756l-433 -432q-2 -3 -3 -4t-2 -3.5t-1 -4.5v-8v-190q0 -26 25 -26h191h4q1 0 3 0.5t3 0.5t3 1t3.5 2t2.5 3l433 432zM919 699l-191 191q-5 4 -16 4t-16 -4l-101 -102l222 -223
l102 102q2 2 3 4.5t1.5 5.5t0.5 6t-0.5 6t-1.5 5.5t-3 4.5z" />
    <glyph glyph-name="uniE633" unicode="&#xe633;" 
d="M883 659q-74 32 -141 32q-32 0 -68 -6.5t-57.5 -12.5t-59.5 -19q-11 -3 -31 -9t-29.5 -9t-23.5 -5.5t-25 -2.5q-32 0 -51 19q-8 16 6 58q8 25 11.5 41t0.5 39.5t-18 41.5q-39 37 -83 38q-54 0 -96 -32q-68 -48 -116.5 -113t-75 -143t-26.5 -160q0 -104 40.5 -198.5
t109.5 -163.5t163.5 -109.5t198.5 -40.5q172 0 308.5 104.5t184.5 273.5q3 6 7.5 23.5t7.5 45.5t3 59.5t-7.5 67.5t-22 68.5t-42.5 63t-68 49.5zM134 416q0 28 19.5 46t44.5 18q34 0 54 -32q10 -16 10 -32q0 -24 -20 -44t-44 -20q-25 0 -44.5 18t-19.5 46zM314 128
q-28 0 -46 19.5t-18 44.5q0 28 19 46t45 18q24 0 44 -20t20 -44q0 -29 -18 -46.5t-46 -17.5zM557 38q-28 0 -46 19.5t-18 44.5q0 24 20 44t44 20q18 0 33 -9t23 -23.5t8 -31.5q0 -25 -18 -44.5t-46 -19.5zM736 307q-19 0 -36 6t-30 16t-23 23.5t-15 30t-5 33.5q0 43 33 76
t76 33t76 -33t33 -76q0 -44 -31 -76.5t-78 -32.5z" />
    <glyph glyph-name="uniE634" unicode="&#xe634;" 
d="M998 870h-697q-11 0 -18.5 -6t-7.5 -19v-672q-25 25 -53.5 38t-61.5 13q-67 0 -113.5 -46.5t-46.5 -113.5t46.5 -113.5t113.5 -46.5q33 0 62.5 12.5t51 34t34 51t12.5 62.5v538h653v-327q-17 17 -34.5 28t-38 17t-42.5 6q-68 0 -114 -46t-46 -113.5t46 -114t113.5 -46.5
t114 46.5t46.5 113.5v698q5 0 0 3q-6 3 -20 3z" />
    <glyph glyph-name="uniE635" unicode="&#xe635;" horiz-adv-x="1031" 
d="M986 61h-109v486l-109 -109q-26 -25 -64 -25h-8q-4 0 -9.5 1.5t-8.5 4.5q7 -14 7 -38q0 -26 -10 -51t-29 -39q-38 -38 -134 -38h-6q-39 0 -64 25q-26 26 -26 64q1 15 3 28.5t4 25t4.5 21.5t5.5 18.5t6.5 16t7 13.5t7.5 12q10 12 25 21t32 13t33 4q26 0 38 -6q0 2 -1.5 6
t-3 9t-1.5 10q0 20 6 35t20 29l236 231q-12 16 -28.5 27.5t-35.5 17.5t-38 6h-608q-53 0 -90.5 -37.5t-37.5 -90.5v-19q0 -19 19 -19h199v-698q0 -53 37.5 -90.5t90.5 -37.5h518q53 0 90.5 37.5t37.5 90.5v45q1 -1 -1 -1q-3 1 -5 1zM45 739q0 39 25.5 64.5t63.5 25.5
q26 0 46.5 -11.5t32 -32.5t11.5 -46h-179zM966 -3q0 -19 -6.5 -35.5t-18.5 -28.5t-28.5 -19t-35.5 -7h-429q32 32 32 90v19h480v-19h6zM1011 829q-9 9 -21 14t-23.5 5t-23.5 -5t-21 -14l-276 -275q-14 -15 -14 -32.5t14 -31.5l26 -26q14 -14 32 -14t32 14l275 275
q19 19 19 47t-19 43zM493 438q-3 -3 -6 -7t-5.5 -9.5t-4.5 -11t-3.5 -13t-3 -13t-3 -14t-2.5 -13.5t-2.5 -14t-1.5 -13q0 -21 13 -35.5t32 -9.5q84 0 108 32q12 12 18 28t6 32.5t-6 33t-18 27.5q-32 33 -81 22q-24 -6 -40 -22z" />
    <glyph glyph-name="uniE636" unicode="&#xe636;" horiz-adv-x="1028" 
d="M321 559l-71 -74q-1 -2 -2 -3l-2 -2q-2 -2 -2.5 -3t-0.5 -2q0 -7 7 -14l252 -252q5 -5 11.5 -5t11.5 5l252 252q12 12 0 24l-70 70q-2 2 -4.5 3.5t-4.5 1.5h-6q-2 0 -4.5 -1.5t-4.5 -3.5l-168 -168l-167 168q-16 15 -27 4z" />
    <glyph glyph-name="uniE637" unicode="&#xe637;" 
d="M512 38q-48 0 -96 11.5t-88.5 31t-79 45t-69.5 53.5t-58.5 57t-47.5 54.5t-35 47.5t-22.5 35t-9.5 17q-3 4 -4 8.5t0 9.5t4 8q3 6 14.5 23.5t36.5 51.5t56 69t76 73t92.5 67.5t108.5 48.5t122 19q48 0 96 -11.5t88.5 -30.5t79 -45t69.5 -53.5t58.5 -56.5t47.5 -55t35 -48
t22.5 -35t9.5 -17q3 -3 4 -8t0 -9.5t-4 -8.5q-8 -22 -59 -88q-138 -180 -305 -239q-71 -24 -142 -25zM51 403q12 -18 25 -36t40.5 -51t55.5 -61t68.5 -60t81 -54t90.5 -36.5t100 -14.5q44 0 88 10.5t82 30t72.5 42.5t65 52t54.5 53.5t45.5 52t32.5 42.5t21 30q-12 18 -25 36
t-40.5 51t-55.5 61t-68.5 60t-81 54t-90.5 37t-100 15q-196 -5 -379 -209q-46 -51 -82 -105zM512 230q-24 0 -46.5 6.5t-41 17.5t-34.5 26.5t-27 33.5t-17.5 39.5t-6.5 43.5q0 67 51 116.5t122 49.5t122 -49.5t51 -116.5q0 -44 -23 -82.5t-63 -61.5t-87 -23zM512 518
q-53 0 -87.5 -34t-34.5 -87q0 -34 17 -62.5t45 -44t60 -15.5q24 0 46 9.5t39 25t27 38.5t10 49q0 53 -34.5 87t-87.5 34zM70 -26q-13 1 -19 7q-10 21 0 32l864 768q22 10 32 0q11 -22 0 -32l-864 -768q0 -7 -13 -7z" />
    <glyph glyph-name="uniE63A" unicode="&#xe63a;" 
d="M1024 -128h-1024v70q0 92 44 168.5t120.5 120.5t168.5 44h32v-51h-32q-120 0 -204 -84t-84 -204v-19h928v19q0 120 -84 204t-204 84h-32v51h32q91 0 167.5 -44t121 -120.5t44.5 -168.5v-70h6zM512 179q-120 0 -204 84t-84 204v141q0 120 84 204t204 84t204 -84t84 -204
v-134q0 -121 -84.5 -208t-203.5 -87zM512 845q-40 0 -77 -12.5t-67 -34.5t-52.5 -51t-34.5 -65t-12 -74v-134q0 -67 32.5 -123t88.5 -88.5t122 -32.5q101 0 172 71.5t71 172.5v134q0 63 -32.5 117.5t-88.5 87t-122 32.5z" />
    <glyph glyph-name="uniE63B" unicode="&#xe63b;" 
d="M512 -128q-138 0 -256 69t-187 187t-69 256t69 256t187 187t256 69t256 -69t187 -187t69 -256t-69 -256t-187 -187t-256 -69zM512 845q-63 0 -123 -16.5t-110.5 -46t-93 -72t-72 -93t-46 -110.5t-16.5 -123q0 -94 36.5 -179.5t98 -147t147 -98t179.5 -36.5t179.5 36.5
t147 98t98 147t36.5 179.5t-36.5 179.5t-98 147t-147 98t-179.5 36.5zM512 314q-10 0 -18 8t-8 17v269q0 10 8 18t18 8q6 0 12 -4t10 -10t4 -12v-269q0 -6 -4 -12t-10 -9.5t-12 -3.5zM512 141q-6 0 -12 3.5t-10 9.5t-4 12v45q0 17 17 24q5 2 9 2q10 0 18 -8t8 -18v-51
q0 -9 -8 -14t-18 -5z" />
    <glyph glyph-name="uniE63C" unicode="&#xe63c;" 
d="M888 -128h-855q-14 0 -22.5 9t-8.5 23v855q0 14 8.5 23t22.5 9h543q14 0 23 -9t9 -23.5t-9 -23t-23 -8.5h-511v-785h785v511q0 9 4 16.5t11.5 11t16.5 3.5q14 0 23 -8.5t9 -22.5v-543q8 -33 -20 -38h-6zM442 280q-13 0 -26 13q-9 10 -9 23.5t9 27.5l543 542q20 21 51 0
q20 -20 0 -51l-543 -542q-12 -13 -25 -13z" />
    <glyph glyph-name="uniE63D" unicode="&#xe63d;" 
d="M730 480h-436q-14 0 -23 9t-9 23v128q0 106 72 178t178 72q69 0 126.5 -33t90.5 -90.5t33 -126.5v-128q0 -11 -9.5 -21.5t-22.5 -10.5zM326 544h372v102q0 77 -54.5 131.5t-131.5 54.5t-131.5 -54.5t-54.5 -131.5v-102zM864 -128h-704q-14 0 -23 9t-9 23v608
q0 13 10.5 22.5t21.5 9.5h704q14 0 23 -9t9 -23v-608q0 -13 -10.5 -22.5t-21.5 -9.5zM192 -64h634v544h-634v-544zM512 141q-47 0 -78 32t-31 77q0 43 33 75.5t76 32.5q47 0 78 -32t31 -76.5t-31 -76.5t-78 -32zM512 314q-25 0 -44.5 -18.5t-19.5 -45.5q0 -29 17.5 -46.5
t46.5 -17.5q25 0 44.5 18t19.5 45.5t-19.5 46t-44.5 18.5zM512 58q-10 0 -18 8t-8 17v90q0 16 17 23q5 2 9 2q10 0 18 -8t8 -17v-90q0 -13 -7.5 -19t-18.5 -6z" />
    <glyph glyph-name="uniE63E" unicode="&#xe63e;" 
d="M832 70h-640q-16 0 -24 17q-1 5 -2 9q0 10 8 18t18 8h640q5 0 9.5 -2.5t8 -6t6 -8t2.5 -9.5q0 -6 -4 -12t-10 -10t-12 -4zM832 678h-640q-16 0 -24 17q-1 5 -2 9q0 16 17 24q5 1 9 2h640q6 0 12 -4t10 -10t4 -12q0 -16 -17 -24q-5 -1 -9 -2zM768 -128h-512q-38 0 -67 29
t-29 67v832q0 38 29 67t67 29h512q38 0 67 -29t29 -67v-832q0 -38 -29 -67t-67 -29zM256 832q-14 0 -23 -9t-9 -23v-832q0 -14 9 -23t23 -9h512q14 0 23 9t9 23v832q0 14 -9 23t-23 9h-512z" />
    <glyph glyph-name="uniE640" unicode="&#xe640;" horiz-adv-x="1031" 
d="M998 -19q-28 86 -89.5 152.5t-146.5 104t-180 37.5v-147q0 -45 -38 -64q-6 -3 -11 -5t-10.5 -3t-11 -1t-11 1t-11 2.5t-11 4.5t-11.5 7l-435 288q-14 10 -23 27.5t-9 36.5q0 32 32 64l442 295q44 22 76 6q39 -19 39 -64v-147q89 0 171 -35t141 -94.5t94 -141t35 -171.5
q-12 -106 -32 -153zM998 -19z" />
    <glyph glyph-name="uniE641" unicode="&#xe641;" 
d="M512 -128q-138 0 -256 69t-187 187t-69 256t69 256t187 187t256 69t256 -69t187 -187t69 -256t-69 -256t-187 -187t-256 -69zM512 826q-90 0 -171.5 -35.5t-140.5 -94.5t-94.5 -140.5t-35.5 -171.5t35.5 -171.5t94.5 -140.5t140.5 -94.5t171.5 -35.5t171.5 35.5
t140.5 94.5t94.5 140.5t35.5 171.5t-35.5 171.5t-94.5 140.5t-140.5 94.5t-171.5 35.5z" />
    <glyph glyph-name="uniE642" unicode="&#xe642;" 
d="M0 384q0 -139 68.5 -257t186.5 -186.5t257 -68.5t257 68.5t186.5 186.5t68.5 257t-68.5 257t-186.5 186.5t-257 68.5t-257 -68.5t-186.5 -186.5t-68.5 -257z" />
    <glyph glyph-name="uniE643" unicode="&#xe643;" 
d="M1024 -83h-1024v934h1024v-934zM64 -19h896v806h-896v-806zM448 339h-307v307h307v-307zM186 384h217v218h-217v-218zM531 448h346v-45h-346v45zM531 320h346v-45h-346v45zM531 186h173v-45h-173v45z" />
    <glyph glyph-name="uniE644" unicode="&#xe644;" 
d="M173 608h211v-211h-211v211zM0 851v-928h1024v928h-1024zM454 326h-352v352h352v-352zM736 115h-211v71h211v-71zM922 256h-397v70h397v-70zM922 397h-397v70h397v-70z" />
    <glyph glyph-name="uniE645" unicode="&#xe645;" horiz-adv-x="1031" 
d="M704 192h-653v70h659q67 0 124.5 33t91.5 90.5t34 126.5q0 102 -72.5 176t-177.5 74h-659v70h659q86 0 159.5 -42t117 -116t43.5 -162q-4 -135 -98 -227.5t-228 -92.5zM282 -58l-282 282l282 288l51 -51l-231 -237l231 -230z" />
    <glyph glyph-name="uniE646" unicode="&#xe646;" 
d="M156 184q-3 6 -11 8t-16 0t-11 -8q-25 -33 -60.5 -98.5t-35.5 -99.5q0 -47 33.5 -80.5t81 -33.5t81 33.5t33.5 80.5q4 38 -34 106.5t-61 91.5zM983 374l-51 70q63 64 63 153q0 86 -62 148t-148 62h-114l-38 51q0 3 -3.5 6t-3.5 7v0q-25 25 -69 25q-62 0 -145.5 -47.5
t-160.5 -124.5q-52 -52 -90.5 -104.5t-61.5 -105.5q-49 -116 0 -165l489 -363q10 -9 23 -14t28 -5q46 0 108 37t121 97q77 71 114 152t1 121zM785 750q44 0 80.5 -21t57.5 -57.5t21 -80.5q0 -32 -11.5 -60.5t-32.5 -54.5l-197 274h82zM137 489q38 95 140 197
q70 70 147.5 114.5t125.5 44.5q26 0 38 -13q10 -9 13 -26t-2 -40t-17 -48q-19 -47 -55 -98t-85 -99q-72 -72 -146.5 -115.5t-126.5 -43.5q-26 0 -39 12q-29 32 7 115z" />
    <glyph glyph-name="uniE647" unicode="&#xe647;" 
d="M256 896q-53 0 -90.5 -37.5t-37.5 -90.5v-896l384 192l384 -192v896q0 53 -37.5 90.5t-90.5 37.5h-512z" />
    <glyph glyph-name="uniE648" unicode="&#xe648;" 
d="M862 -123h-6l-344 210l-344 -210q-10 -10 -19 0q-6 0 -6 13v987q0 19 19 19h700q19 0 19 -19v-981q0 -6 -6 -13q-6 -6 -13 -6zM512 125h6l325 -197v930h-662v-937l325 198z" />
    <glyph glyph-name="uniE64A" unicode="&#xe64a;" 
d="M1006 330l-560 560q-6 6 -19 6h-394q-14 0 -23 -8.5t-9 -23.5v-394q0 -13 13 -26l560 -559q12 -13 25 -13t26 13l394 394q11 35 -13 51zM262 565q-28 0 -46 19.5t-18 44.5q0 27 19.5 45t44.5 18q18 0 33 -9t23 -23.5t8 -30.5q6 -32 -27 -53q-17 -10 -37 -11z" />
    <glyph glyph-name="uniE64B" unicode="&#xe64b;" 
d="M992 832h-960q-14 0 -23 -9t-9 -23v-832q0 -14 9 -23t23 -9h960q14 0 23 9t9 23v832q0 14 -9 23t-23 9zM160 704h704q14 0 23 -9t9 -23v-435l-166 166q-20 19 -45 7l-211 -180l-141 90q-26 0 -39 -6l-166 -148v506q0 27 25 31q4 1 7 1zM461 416q31 0 57.5 15.5t42 42
t15.5 57.5q0 24 -9 44.5t-24.5 34.5t-36.5 22t-45 8q-54 0 -91 -46q-24 -32 -24 -69q0 -47 35 -78t80 -31z" />
    <glyph glyph-name="uniE64C" unicode="&#xe64c;" 
d="M871 6h-725q-6 0 -12 6v19l165 261q0 6 13 6q6 0 12 -6l153 -121l184 216q7 7 13 7q3 0 6 -2t5 -3l2 -2l197 -356q6 -6 6 -13l-6 -6q-2 -2 -6 -4t-7 -2zM178 37h668l-178 312l-185 -210q-3 -3 -6.5 -4t-8 0t-10.5 4l-153 121zM413 362q-47 0 -80.5 33.5t-33.5 80.5
q0 24 9 45t24.5 36.5t36.5 24.5t44 9q12 0 23.5 -2.5t21.5 -7t19.5 -10.5t17 -13.5t14 -17t10.5 -19.5t6.5 -21.5t2.5 -23.5q0 -46 -35.5 -80t-79.5 -34zM413 559q-33 0 -57.5 -24.5t-24.5 -58.5q0 -22 11 -41t30.5 -30t40.5 -11q34 0 58.5 24.5t24.5 57.5q0 22 -11 41
t-30.5 30.5t-41.5 11.5zM999 -128h-980q-6 0 -12.5 5t-6.5 14v884q0 4 2 8t6.5 7.5t10.5 3.5h986q2 0 4 -0.5t4 -1.5t4 -2.5t3.5 -3.5t2.5 -5t1 -6v-884q-5 -10 -10.5 -14.5t-14.5 -4.5zM32 -96h954v852h-954v-852zM280 692q-4 0 -8 2t-7.5 7t-3.5 11v165q0 6 5 12.5t14 6.5
q19 0 19 -19v-165q-5 -10 -9.5 -15t-9.5 -5zM509 692q-2 0 -3.5 0.5t-3.5 1.5t-3.5 2t-3 2.5t-3 3.5t-2 4.5t-0.5 5.5v165q0 6 5 12.5t14 6.5q3 0 7.5 -2t8 -6.5t3.5 -10.5v-165q0 -15 -16 -19q-2 0 -3 -1zM738 692q-4 0 -8 2t-7.5 7t-3.5 11v165q0 6 5 12.5t14 6.5
q3 0 7.5 -2t8 -6.5t3.5 -10.5v-165q0 -20 -19 -20z" />
    <glyph glyph-name="uniE64D" unicode="&#xe64d;" 
d="M173 896h83v-128h-83v128zM256 128v467h-83v-557h557v90h-474zM896 128h128v-83h-128v83zM0 723v-83h768v-768h83v851h-851zM0 723z" />
    <glyph glyph-name="uniE64E" unicode="&#xe64e;" horiz-adv-x="1031" 
d="M346 698q-6 0 -13 5t-7 14v83h-166v-83q0 -19 -19 -19t-19 19v96q0 6 5 12.5t14 6.5h198q6 0 12.5 -5.5t6.5 -13.5v-96q7 -18 -12 -19zM282 531h-96q-6 0 -13 5.5t-7 13.5q0 20 20 20h96q6 0 12.5 -5.5t6.5 -14t-6.5 -14t-12.5 -5.5zM646 102q-87 0 -152 64t-65 154
q0 88 63.5 153t153.5 65q88 0 153 -64t65 -154q-3 -60 -33 -110t-79 -79t-106 -29zM646 499q-50 0 -91 -24.5t-64.5 -65.5t-23.5 -89q0 -76 53 -127.5t126 -51.5q76 0 128 53t52 126q0 81 -65 136q-51 43 -115 43zM1005 -64h-986q-6 0 -12.5 5.5t-6.5 13.5v762q0 6 5.5 12.5
t13.5 6.5h992q6 0 12.5 -5.5t6.5 -13.5v-762q-9 -19 -25 -19zM32 -32h960v730h-960v-730z" />
    <glyph glyph-name="uniE64F" unicode="&#xe64f;" 
d="M774 90h-524q-15 0 -23.5 8.5t-8.5 23.5v524q0 10 4 17t11 11t17 4h524q15 0 23.5 -8.5t8.5 -23.5v-524q0 -15 -8.5 -23.5t-23.5 -8.5zM282 154h454v454h-454v-454zM122 614h-90q-14 0 -23 9t-9 23.5t9 23t23 8.5h90q14 0 23 -8.5t9 -23.5q0 -9 -4 -16.5t-11.5 -11.5
t-16.5 -4zM122 90h-90q-10 0 -17 4t-11 11t-4 17q0 14 9 23t23 9h90q14 0 23 -9t9 -23.5t-9 -23t-23 -8.5zM992 614h-90q-14 0 -23 9t-9 23.5t9 23t23 8.5h90q14 0 23 -8.5t9 -23t-9 -23.5t-23 -9zM992 90h-90q-14 0 -23 8.5t-9 23t9 23.5t23 9h90q10 0 17 -4t11 -11.5
t4 -16.5q0 -15 -9 -23.5t-23 -8.5zM249.5 742q-14.5 0 -23 9t-8.5 23v90q0 10 4 17t11 11t17 4q14 0 23 -9t9 -23v-90q0 -14 -9 -23t-23.5 -9zM774.5 742q-14.5 0 -23.5 9t-9 23v90q0 14 9 23t23.5 9t23 -9t8.5 -23v-90q0 -14 -8.5 -23t-23 -9zM250 -128q-6 0 -11 1.5
t-9 4.5t-6.5 6.5t-4 8.5t-1.5 11v90q0 14 8.5 23t23.5 9q9 0 16.5 -4t11.5 -11.5t4 -16.5v-90q0 -14 -9 -23t-23 -9zM774.5 -128q-14.5 0 -23.5 9t-9 23v90q0 14 9 23t23.5 9t23 -9t8.5 -23v-90q0 -14 -8.5 -23t-23 -9z" />
    <glyph glyph-name="uniE650" unicode="&#xe650;" 
d="M582 -58q0 -18 -9.5 -34.5t-25.5 -26t-35 -9.5t-35 9.5t-25.5 26t-9.5 34.5v372h-372q-18 0 -34.5 9.5t-26 25.5t-9.5 35t9.5 35t26 25.5t34.5 9.5h365v372q5 29 27 49.5t50 20.5q9 0 18.5 -2.5t17 -7t14 -11t11 -14.5t7 -17t2.5 -18v-365h365q34 -5 55.5 -26.5
t21.5 -50.5t-21 -49.5t-49 -20.5h-372v-372zM582 -58z" />
    <glyph glyph-name="uniE651" unicode="&#xe651;" 
d="M1024 384l-192 192v-128h-262v256h128l-186 192l-192 -192h128v-262h-256v134l-192 -192l192 -192v128h262v-256h-134l192 -192l192 192h-128v262h256v-128zM1024 384z" />
    <glyph glyph-name="uniE652" unicode="&#xe652;" 
d="M704 -128h-378q-19 0 -19 19v77q0 13 7 13l108 109v620h-198l-109 -108q-6 -7 -13 -7h-83q-19 0 -19 19v263q0 19 19 19h986q19 0 19 -19v-263q0 -19 -19 -19h-77q-12 2 -13 7l-109 108h-198v-620l109 -109q6 -7 6 -13v-77q0 -8 -6.5 -13.5t-12.5 -5.5zM339 -90h339v52
l-108 108q-5 5 -6 6.5t-1 6.5v640q0 19 19 19h231q12 -1 13 -6l108 -109h52v231h-948v-231h52l108 109q7 6 13 6h231q19 0 19 -19v-646q-2 -12 -7 -13l-108 -109v-45h-7z" />
    <glyph glyph-name="uniE653" unicode="&#xe653;" 
d="M979 896h-941q-38 0 -38 -38v-216q0 -16 10 -27.5t28 -11.5h38q13 0 26 13l95 96h204v-643l-96 -95q-12 -13 -12 -26v-38q0 -7 2 -14t7 -12t12.5 -8.5t16.5 -3.5h362q16 0 27 10t11 28v38q0 13 -12 26l-96 95v643h197l64 -96q13 -13 32 -13h70q15 0 26.5 10.5t11.5 28.5
v216q-10 38 -45 38z" />
    <glyph glyph-name="uniE654" unicode="&#xe654;" horiz-adv-x="1063" 
d="M314 333q-17 0 -32.5 6.5t-26.5 18t-18 27t-7 31.5v32q0 34 25 58.5t58.5 24.5t58.5 -24.5t25 -58.5v-32q0 -34 -25 -58.5t-58 -24.5zM314 499q-34 0 -47 -29q-4 -11 -5 -22v-32q0 -33 30 -47q10 -4 22 -4q24 0 37.5 13.5t13.5 37.5v32q0 23 -15.5 37t-35.5 14zM877 365
h-269q-6 0 -12.5 5t-6.5 14q0 19 19 19h262q6 0 13 -5t7 -14q0 -19 -13 -19zM774 237h-166q-4 0 -8 2t-7.5 6.5t-3.5 10.5q0 19 19 19h166q6 0 13 -5t7 -14q0 -19 -20 -19zM480 166h-333q-19 0 -19 20q0 48 33.5 81.5t81.5 33.5h135q15 0 30 -4t28 -11.5t23.5 -17.5t18 -22
t11.5 -26t4 -28v-6q4 -5 -2 -12.5t-11 -7.5zM166 205h295q-2 11 -7 21t-12.5 18t-17 13.5t-21.5 8.5t-25 3h-135q-19 0 -35.5 -8t-27 -22.5t-14.5 -33.5zM1005 -32h-986q-6 0 -12.5 5.5t-6.5 13.5v794q0 6 5.5 12.5t13.5 6.5h167q6 0 12.5 -5.5t6.5 -13.5q0 -13 6 -24.5
t18 -19t27 -7.5q16 0 27.5 6t17.5 17.5t6 27.5q0 6 5.5 12.5t13.5 6.5h135q6 0 12.5 -5.5t6.5 -13.5q0 -13 6 -24.5t18 -19t27 -7.5q24 0 37.5 13.5t13.5 37.5q0 6 5.5 12.5t14.5 6.5h134q6 0 12.5 -5.5t6.5 -13.5q0 -13 6 -24.5t18 -19t27 -7.5q16 0 27.5 6t18 17.5
t6.5 27.5q0 6 5 12.5t14 6.5h166q3 0 6 -1t6 -3.5t5 -6.5t2 -8v-794q-21 -3 -36.5 -11t-20.5 -8zM32 6h960v756h-134q-5 -29 -27.5 -46.5t-56.5 -17.5q-61 0 -83 64h-102q-5 -29 -27.5 -46.5t-55.5 -17.5q-29 0 -51.5 17.5t-32.5 46.5h-102q-5 -29 -27.5 -46.5t-55.5 -17.5
q-62 0 -83 64h-122v-756z" />
    <glyph glyph-name="uniE655" unicode="&#xe655;" 
d="M249.5 358q-43.5 0 -76 33t-32.5 76v45q0 43 32.5 76t76.5 33q28 0 53 -15t40 -40.5t15 -53.5v-45q0 -43 -32.5 -76t-76 -33zM1005 403h-359q-4 0 -9.5 2.5t-10.5 8.5t-5 15q0 14 5.5 19.5t19.5 5.5h352q4 0 9.5 -2t11 -8t5.5 -15q0 -26 -19 -26zM870 230h-224
q-4 0 -9.5 2.5t-10.5 8.5t-5 15q0 14 5.5 20t19.5 6h224q3 0 6 -1t6.5 -3t6.5 -4.5t5 -7.5t2 -10t-1 -8.5t-3 -6.5t-4 -5t-5 -3l-6 -2q-3 -1 -7 -1zM474 141h-448q-4 0 -9.5 2t-11 8.5t-5.5 14.5q0 63 45.5 108.5t108.5 45.5h179q42 0 76.5 -18t55.5 -52t21 -77v-7
q13 -12 -5 -23q-5 -2 -7 -2z" />
    <glyph glyph-name="uniE656" unicode="&#xe656;" horiz-adv-x="1031" 
d="M1005 -128h-986q-1 0 -3 0.5t-3.5 1t-3.5 2t-3.5 3t-3 3.5t-2 4.5t-0.5 4.5v986q0 6 5.5 12.5t13.5 6.5h992q6 0 12.5 -5.5t6.5 -13.5v-992q-12 -13 -25 -13zM32 -96h960v960h-960v-960zM877 38h-730q-13 0 -13 7v19l167 294q0 7 12.5 7t12.5 -7l154 -121l154 217
q6 7 12 7l13 -7l231 -390q0 -1 1 -2t3 -4.5t2 -6.5q-4 -4 -6.5 -6t-6 -4.5t-6.5 -2.5zM179 70h672l-205 352l-147 -211q0 -4 -3 -5t-10 -1q-4 0 -6 0.5t-6 5.5l-148 122zM448 499q-48 0 -81.5 33.5t-33.5 81.5t33.5 82t81.5 34q31 0 58 -15.5t42 -42t15 -58.5
q0 -48 -33.5 -81.5t-81.5 -33.5zM448 698q-34 0 -58.5 -25t-24.5 -59q0 -11 3 -21.5t8.5 -19.5t13 -17t17 -13.5t20 -8.5t21.5 -3q22 0 41 11.5t30.5 30.5t11.5 41t-11.5 41.5t-30.5 31t-41 11.5z" />
    <glyph glyph-name="uniE657" unicode="&#xe657;" 
d="M1005 896h-986q-19 0 -19 -19v-979q0 -20 19 -20h979q20 0 20 20v979q7 18 -13 19zM422 717q47 0 78 -32.5t31 -76.5q0 -47 -32 -78t-77 -31q-28 0 -53 15t-40 40.5t-15 53.5q0 48 30 78.5t78 30.5zM870 51h-716q-3 0 -7 2t-6 4.5t-7 6.5q-9 10 0 19l180 269q6 6 12 6
q13 0 20 -6l115 -115l160 205q6 6 19 6q7 -1 19 -13l218 -352q6 -8 6 -13q7 -18 -13 -19z" />
    <glyph glyph-name="uniE658" unicode="&#xe658;" 
d="M288 461h-275q-3 0 -5 1t-4 3t-3 4t-1 5v268q0 5 4 9t9 4h269q4 0 8 -4t4 -9v-268q5 -5 2 -9t-8 -4zM32 486h237v237h-237v-237zM1011 723h-544q-5 0 -9 4t-4 9q0 3 2 6t5 5t6 2h544q5 0 9 -4t4 -9t-4 -9t-9 -4zM781 544h-314q-5 0 -9 4t-4 9q0 3 2 6t5 5t6 2h314
q5 0 9 -4t4 -9q0 -3 -0.5 -5t-1.5 -4t-4 -3t-7 -1zM288 13h-275q-5 0 -9 4t-4 9v268q0 5 4 9t9 4h269q4 0 8 -4t4 -9v-268q5 -5 2 -9t-8 -4zM32 45h237v237h-237v-237zM1011 282h-544q-5 0 -9 4t-4 8q0 10 10 13h3h544q5 0 9 -4t4 -9q0 -9 -10 -12h-3zM781 102h-314
q-3 0 -6 2t-5 5t-2 6t2 6t5 5t6 2h314q2 0 3.5 -0.5t3.5 -2t3 -3t2 -3.5t1 -4q8 -8 -5 -12q-4 0 -8 -1z" />
    <glyph glyph-name="uniE659" unicode="&#xe659;" horiz-adv-x="1031" 
d="M294 742q0 5 -4 9t-8 4h-269q-5 0 -9 -4t-4 -9v-268q0 -5 4 -9t9 -4h275q5 0 8 4t-2 9v268zM467 717h544q6 0 10.5 3.5t6.5 7.5t2 8q0 12 -12 18q-4 1 -7 1h-544q-19 0 -19 -19t19 -19zM467 538h314q19 0 19 19q0 15 -16 19h-3h-314q-19 0 -19 -19t19 -19zM294 294
q0 5 -4 9t-8 4h-269q-3 0 -5 -1t-4 -3t-3 -4t-1 -5v-268q0 -5 4 -9t9 -4h275q5 0 8 4t-2 9v268zM1011 314h-544q-19 0 -19 -20q0 -8 6.5 -13.5t12.5 -5.5h544q15 0 19 16v3q0 13 -12 18q-4 1 -7 2zM781 134h-314q-19 0 -19 -19q0 -3 1.5 -6.5t3.5 -5.5t4.5 -4t5 -2.5
t4.5 -0.5h314q18 1 19 13v13q0 12 -19 12z" />
    <glyph glyph-name="uniE65A" unicode="&#xe65a;" 
d="M941 6h-135q-6 0 -12.5 5.5t-6.5 14.5q0 19 19 19h116v819h-692v-115q0 -6 -5 -12.5t-14 -6.5q-19 0 -19 19v128q0 6 5.5 12.5t13.5 6.5h723q4 0 8 -2t8 -6.5t4 -10.5v-858q0 -5 -4 -9t-9 -4zM806 -128h-723q-1 0 -3 0.5t-3.5 1t-3.5 2t-3.5 3t-3 3.5t-2 4.5t-0.5 4.5
v858q0 19 19 19h723q6 0 13 -5.5t7 -13.5v-858q0 -19 -20 -19zM102 -96h692v826h-692v-826zM678 166h-460q-20 0 -20 20v428q0 6 5.5 13t14.5 7h460q6 0 13 -5.5t7 -14.5v-428q-3 -3 -6.5 -8t-7 -8.5t-6.5 -3.5zM230 205h429v397h-429v-397z" />
    <glyph glyph-name="uniE65B" unicode="&#xe65b;" 
d="M934 896h-710q-19 0 -19 -19v-45q0 -19 19 -19h646v-781q0 -19 20 -19h44q20 0 20 19v845q7 15 -14 19h-6zM800 762h-710q-20 0 -20 -20v-844q0 -20 20 -20h710q19 0 19 20v844q8 16 -13 19q-3 1 -6 1zM691 205q0 -19 -19 -19h-448q-19 0 -19 19v403q0 19 19 19h448
q19 0 19 -19v-403z" />
    <glyph glyph-name="uniE65D" unicode="&#xe65d;" 
d="M147 704v-685q0 -62 42.5 -104.5t104.5 -42.5h442q62 0 104.5 42.5t42.5 104.5v685h-736zM339 26q0 -14 -7.5 -23t-17.5 -9h-20q-10 0 -17.5 9t-7.5 23v544q0 13 7.5 22.5t17.5 9.5h26q5 0 9.5 -2.5t8 -6.5t6 -10t2.5 -13zM563 26q0 -10 -3.5 -17.5t-9.5 -11t-12 -3.5
h-52q-10 0 -17.5 9t-7.5 23v544q0 13 7.5 22.5t17.5 9.5h52q4 0 9 -2.5t8.5 -6.5t5.5 -10t2 -13v-544zM755 570v-544q0 -10 -3.5 -17.5t-9.5 -11t-12 -3.5h-26q-10 0 -18 9t-8 23v544q0 13 8 22.5t18 9.5h26q9 0 15 -4.5t8 -11t2 -16.5zM877 896h-730q-13 0 -24.5 -6
t-19 -18t-7.5 -27v-26q0 -13 6 -24.5t18 -19t27 -7.5h730q20 0 35.5 14t15.5 37v26q0 15 -7.5 27t-19 18t-24.5 6zM877 896z" />
    <glyph glyph-name="uniE65E" unicode="&#xe65e;" 
d="M966 -13h-908q-24 0 -41 17t-17 41t17 40.5t41 16.5h908q24 0 41 -16.5t17 -40.5q0 -47 -42 -56q-8 -2 -16 -2zM966 326h-908q-16 0 -29.5 8t-21 21t-7.5 29t7.5 29t21 21t29.5 8h908q24 0 41 -17t17 -41q0 -16 -7.5 -29t-21 -21t-29.5 -8zM966 666h-908q-24 0 -41 16.5
t-17 40.5q0 16 7.5 29t21 21t29.5 8h908q24 0 41 -17t17 -41q0 -16 -7.5 -29t-21 -20.5t-29.5 -7.5z" />
    <glyph glyph-name="uniE660" unicode="&#xe660;" 
d="M843 -128h-662q-3 0 -7.5 2t-8 6.5t-3.5 10.5v884q0 2 1 4.5t2.5 5t3.5 4.5t5.5 3.5t6.5 1.5h655q4 0 8 -2t7.5 -6.5t3.5 -10.5v-884q0 -9 -3.5 -14t-8.5 -5zM200 -96h624v852h-624v-852zM347 661q-4 0 -8 2t-7.5 6.5t-3.5 10.5v197q0 6 5 12.5t14 6.5q19 0 19 -19v-197
q0 -19 -19 -19zM512 661q-4 0 -8 2t-7.5 6.5t-3.5 10.5v197q0 6 5 12.5t14 6.5q6 0 12.5 -5t6.5 -14v-197q0 -9 -6.5 -14t-12.5 -5zM677 661q-3 0 -7.5 2t-8 6.5t-3.5 10.5v197q0 6 5.5 12.5t13.5 6.5q6 0 12.5 -5t6.5 -14v-197q-4 -10 -9 -14.5t-10 -4.5zM709 133h-394
q-6 0 -12.5 5t-6.5 14v292q0 6 5 13t14 7h394q6 0 12.5 -5.5t6.5 -14.5v-292q0 -6 -3.5 -10.5t-7.5 -6.5t-8 -2zM334 165h362v260h-362v-260zM607 330h-197q-6 0 -12.5 5t-6.5 14q0 6 5.5 12.5t13.5 6.5h197q6 0 12.5 -5t6.5 -14q0 -19 -19 -19zM512 235h-95q-4 0 -8 2
t-7.5 6.5t-3.5 10.5t5 12.5t14 6.5h95q6 0 12.5 -5.5t6.5 -14t-6.5 -13.5t-12.5 -5z" />
    <glyph glyph-name="uniE661" unicode="&#xe661;" 
d="M512 -128q-184 0 -287 57q-71 40 -71 97q0 39 35.5 71.5t88 50.5t112.5 25h7l-160 256q0 6 -1.5 10t-6 11.5t-5.5 10.5v13q-14 22 -20 49.5t-6 58.5q0 130 92 222t222 92t222 -92t92 -222q0 -60 -20 -108v-13q-3 -7 -6 -16.5t-6 -15.5l-282 -448l-64 102
q-68 -4 -120.5 -21t-65.5 -30v0q27 -20 92 -39t158 -19h13q29 0 56.5 2t50 5.5t42.5 7.5t35.5 9.5t28.5 11t22 11t14 11.5q-10 11 -44 23.5t-84 21.5l58 89q86 -19 132.5 -55.5t46.5 -84.5q-6 -49 -62 -85t-136 -52.5t-173 -16.5v0zM512 755q-35 0 -66 -17t-49.5 -48.5
t-18.5 -68.5q0 -54 38.5 -94.5t95.5 -40.5q54 0 94 39t40 96q0 26 -11 50.5t-29.5 43t-43 29.5t-50.5 11v0zM512 755z" />
    <glyph glyph-name="uniE662" unicode="&#xe662;" 
d="M1024 0v26q0 11 -1.5 31.5t-4.5 38.5q-9 58 -45 58q-109 38 -269 64h-19v64l6 6q32 32 39 64v13h12h2t5.5 1.5t6.5 4t6.5 7.5t5.5 12q13 26 19.5 54.5t6.5 41.5l-45 -6l19 38q2 5 4.5 13t6.5 31.5t3 46t-10.5 53t-29.5 55.5q-2 3 -8 7t-27.5 11t-47.5 7h-13h-12
q3 4 -7 10t-29.5 11t-40.5 5q-20 0 -58 -13q-1 0 -3.5 -1.5t-10.5 -6.5t-15.5 -10t-17.5 -14t-18.5 -19t-17 -23.5t-13.5 -27.5q-5 -24 -5 -62.5t5 -52.5l7 -26h-26h-6v-6v0q0 -34 10 -74t34 -48l20 -6v-13q4 -23 12 -44t13 -27l13 -6v-64h-19q-16 -2 -42 -6.5t-91 -19.5
t-110 -32q-5 0 -13 -4.5t-17 -18.5t-9 -34l-6 -109h851zM141 96q0 38 21.5 63.5t42.5 32.5q57 26 127 42t110 16v12q-4 4 -7 8t-5.5 8t-5.5 9l-4 9q-2 4 -4.5 9.5t-4 9.5t-3.5 9t-2.5 8t-2.5 7q-15 8 -26.5 21.5t-18 30.5t-11 32.5t-6 33.5t-2 25.5t-0.5 16.5q0 11 3.5 21
t3.5 11l12 13q-3 20 -2.5 44t3.5 44.5t6 26.5v7q3 5 6.5 11t6.5 11.5t5.5 11.5t6 12t7.5 11q-16 4 -30 6t-34.5 -0.5t-38.5 -11.5q-2 -2 -7 -4.5t-18.5 -11.5t-24.5 -19t-22.5 -26.5t-16.5 -34.5q-13 -77 0 -109q-3 0 -7 -0.5t-9.5 -7t-2.5 -18.5v-10q0 -7 2.5 -25t6.5 -33
t13.5 -30.5t21.5 -22.5h7q13 -58 32 -71v-32q-15 -1 -38.5 -4t-79.5 -16.5t-93 -30.5q-2 0 -5 -1.5t-11 -6.5t-14 -12.5t-10.5 -20.5t-4.5 -29l-13 -103h134z" />
    <glyph glyph-name="uniE663" unicode="&#xe663;" 
d="M186 339l153 77q6 -7 15.5 -19.5t35 -54.5t45.5 -86.5t39.5 -113t24.5 -136.5l-115 -51q-7 8 -18 21.5t-40.5 56.5t-54 86t-50 104t-35.5 116v0zM410 -58l102 39l-19 -90zM64 877h-5q-2 0 -5 -1l-4 -2q-3 -1 -5 -4q-47 -18 -43 -89t35.5 -157t73 -162t68.5 -104l154 77
l-34 111q-74 218 -152 292q-8 8 -16.5 14.5t-16.5 10.5t-16 6.5t-13.5 4t-11 2.5t-7.5 1h-2zM723 666h301v-71h-301v71zM582 320h442v-70h-442v70zM486 -38h538v-64h-538v64zM486 -38z" />
    <glyph glyph-name="uniE665" unicode="&#xe665;" 
d="M198 -90h-160q-4 0 -8 1.5t-7.5 3.5t-7 4.5t-6.5 6t-5 7.5t-3 8t-1 8v633q0 23 22 35q9 4 16 4h160q7 0 14.5 -3.5t12.5 -8.5t8.5 -12.5t3.5 -14.5v-627q0 -18 -12 -31.5t-27 -13.5zM589 -90h-154q-5 0 -11 2.5t-10.5 6t-8.5 8.5t-6 10.5t-2 11.5v870q0 22 22 34
q9 4 16 5h160q22 0 34 -23q4 -8 5 -16v-864q-6 -21 -16.5 -33t-28.5 -12zM986 -90h-160q-23 0 -35 23q-4 8 -4 16v397q0 7 3.5 14t8.5 12t12.5 8.5t14.5 3.5h160q22 0 34 -22q4 -9 4 -16v-397q0 -7 -3.5 -14t-8.5 -12.5t-12 -9t-14 -3.5zM986 -90z" />
    <glyph glyph-name="uniE666" unicode="&#xe666;" 
d="M512 64q-38 0 -67 -29t-29 -67q0 -40 27 -68t69 -28q38 0 67 29t29 67q0 42 -28 69t-68 27zM710 819q-90 81 -230 71q-62 0 -124.5 -35t-105.5 -93q-7 -10 -12 -21l-10 -19q-4 -8 -9 -22t-7 -19.5t-7.5 -21.5t-6.5 -19v0v-13q0 -35 26.5 -62t63.5 -27q33 0 55.5 20
t27.5 50q2 4 2.5 6.5t2 6.5t2.5 6.5t2.5 6t2.5 6.5t3 6.5t3.5 6.5t3.5 6t4 7q19 28 47 42.5t62 14.5h12q52 0 77 -25q38 -29 52 -76.5t-1 -90.5q-3 -10 -6.5 -17.5t-8 -14t-10.5 -13.5l-173 -198q-26 -17 -26 -64q0 -46 40 -74q23 -15 50 -16q38 0 70 32l173 205q0 13 13 26
v0q28 39 43 85t15 92t-12.5 90.5t-39 84.5t-64.5 70zM710 819z" />
    <glyph glyph-name="uniE667" unicode="&#xe667;" 
d="M1018 730q0 12 -6 22.5t-16.5 16t-23 5.5t-22.5 -5.5t-16 -16t-6 -22.5v-858h90v858zM51 467q-19 0 -32 -12.5t-13 -32.5v-550h90v550q0 8 -2 15t-6 12.5t-9.5 9.5t-12.5 6t-15 2zM358 896q-19 0 -31.5 -13t-12.5 -32v-979h89v979q0 19 -12.5 32t-32.5 13zM666 621
q-20 0 -32.5 -13t-12.5 -32v-704h89v704q0 19 -12.5 32t-31.5 13zM666 621z" />
    <glyph glyph-name="uniE669" unicode="&#xe669;" 
d="M198 19q-19 0 -35 16t-16 35q0 29 28 45q12 6 23 7q20 0 36 -16t16 -36q0 -15 -7.5 -27t-19.5 -18t-25 -6zM198 83q-2 0 -4.5 -0.5t-5 -2t-4.5 -4t-3.5 -5.5t-1.5 -7q0 -19 19 -19q4 0 8 2t8 6.5t4 10.5q0 3 -1 5.5t-2 4t-3 3.5t-3.5 3t-3.5 1.5t-3.5 1t-3.5 0.5z
M173 -128q-71 1 -122 51q-51 51 -51 128q0 80 58 128l435 378q-18 53 -7 121q10 54 39 99t74 74t99 39q23 3 44.5 3.5t44.5 -2t45 -8.5q5 0 9 -4t4 -9v-4q0 -2 -1 -5t-2 -5.5t-4 -4.5l-121 -121l141 -141l121 121l13 7q5 0 9 -4t4 -9q17 -60 6 -134q-9 -54 -38.5 -99
t-74 -74t-98.5 -39q-8 0 -16.5 -1.5t-16 -3t-12.5 -1.5q-11 0 -24.5 1.5t-25.5 3t-20 1.5l-378 -435q-62 -51 -134 -51zM755 864h-7q-3 0 -8 -0.5t-9 -1t-9.5 -2t-11.5 -2.5q-33 -8 -64 -25t-55 -41.5t-41.5 -55.5t-24.5 -64q-11 -64 6 -115v-4q0 -1 -0.5 -3.5t-1 -4
t-1.5 -4t-3 -3.5l-448 -391q-45 -36 -45 -102q1 -64 38 -103q39 -38 96 -38q62 1 103 51l390 448q7 7 19 7q13 -4 20 -5.5t18 -3.5t20.5 -3t18.5 -1q26 0 39 6q67 15 119 67t66 119q5 24 5 44.5t-5 44.5l-115 -115q-3 -3 -8 -4t-9.5 0t-8.5 4l-160 160q-6 7 -6 13q0 5 1 6.5
t5 6.5l116 115q-3 -2 -7.5 -2.5t-9.5 0t-11.5 1.5t-10.5 1z" />
    <glyph glyph-name="uniE66A" unicode="&#xe66a;" 
d="M602 -83q-13 0 -20 6l-339 256h-211q-14 0 -23 9t-9 23v346q0 14 9 23t23 9h205l339 256q21 10 32 0q19 -11 19 -32v-864q0 -23 -19 -32h-6zM64 243h186q12 0 19 -6l294 -224v742l-294 -224q-7 -6 -19 -6h-186v-282zM954 262q-5 0 -8.5 0.5t-9 2t-8.5 4.5l-186 179
q-9 10 -9 22.5t9 22.5q5 5 11 7t12 2t11.5 -2t10.5 -7l186 -179q9 -10 9 -23t-9 -22q-7 -7 -19 -7zM858 224q-68 0 -117.5 46.5t-49.5 113.5q0 27 8 51t23 44t35.5 34.5t46 22.5t54.5 8q67 0 116.5 -46.5t49.5 -113.5q0 -68 -47.5 -114t-118.5 -46zM858 480q-39 0 -67.5 -29
t-28.5 -67q0 -25 13 -47.5t35 -35.5t48 -13q15 0 29.5 5t26 14t21 21t14.5 26.5t5 29.5q2 19 -4.5 36.5t-19.5 30.5t-32 21t-40 8z" />
  </font>
</defs>
</svg>
